# xmcd
#
# Track frame offsets: 
#        150
#        13332
#        30022
#        43522
#        56215
#        83732
#        94775
#        108355
#        126302
#        137192
#        152735
#        169990
#        182155
#        190377
#        201525
#        218572
#        229145
#        243042
#        261960
#        267610
#        285737
#        298470
#
# Disc length: 4192 seconds
#
# Revision: 1
# Processed by: cddbd v1.4PL0 Copyright (c) Steve Scherf et al.
# Submitted via: ExactAudioCopy v0.90b3
#
DISCID=52105e16
DTITLE=The Jon Spencer Blues Explosion - Extra Width and Mo' Width
DYEAR=2000
DGENRE=Rock
TTITLE0=Afro
TTITLE1=History Of Lies
TTITLE2=Back Slider
TTITLE3=Soul Letter
TTITLE4=Soul Typecast
TTITLE5=Pant Leg
TTITLE6=Hey Mom
TTITLE7=Big Road
TTITLE8=Train #2
TTITLE9=Inside The World Of The Blues Explosion
TTITLE10=The World Of Sex
TTITLE11=Afro
TTITLE12=Out Of luck
TTITLE13=Cherry Lime
TTITLE14=Rob R Is President
TTITLE15=Ole Man Trouble
TTITLE16=Wet Cat Blues
TTITLE17=Johnson
TTITLE18=There Stands The Glass
TTITLE19=Lion Cut
TTITLE20=Beat Of The Traps
TTITLE21=Memphis Soul Typecast
EXTD=
EXTT0=
EXTT1=
EXTT2=
EXTT3=
EXTT4=
EXTT5=
EXTT6=
EXTT7=
EXTT8=
EXTT9=
EXTT10=
EXTT11=
EXTT12=
EXTT13=
EXTT14=
EXTT15=
EXTT16=
EXTT17=
EXTT18=
EXTT19=
EXTT20=
EXTT21=
PLAYORDER=
